HIERARCHY
ROOT Hips
{
	OFFSET 0.053599 88.859886 3.107447
	CHANNELS 6 Xposition Yposition Zposition Zrotation Yrotation Xrotation 
	JOINT Spine
	{
		OFFSET -0.000000 8.814246 -2.080107
		CHANNELS 3 Zrotation Yrotation Xrotation
		JOINT Spine1
		{
			OFFSET 0.000000 8.844141 0.000000
			CHANNELS 3 Zrotation Yrotation Xrotation
			JOINT Spine2
			{
				OFFSET -0.000000 11.682268 0.000000
				CHANNELS 3 Zrotation Yrotation Xrotation
				JOINT Spine3
				{
					OFFSET 0.000000 11.746700 0.000000
					CHANNELS 3 Zrotation Yrotation Xrotation
					JOINT Neck
					{
						OFFSET -0.000000 17.658264 -0.000000
						CHANNELS 3 Zrotation Yrotation Xrotation
						JOINT Neck1
						{
							OFFSET -0.000000 5.101515 -0.000000
							CHANNELS 3 Zrotation Yrotation Xrotation
							JOINT Head
							{
								OFFSET 0.000000 5.101515 0.000000
								CHANNELS 3 Zrotation Yrotation Xrotation
								JOINT HeadEnd
								{
									OFFSET 0.000000 11.655085 0.000000
									CHANNELS 3 Zrotation Yrotation Xrotation
									End Site
									{
										OFFSET 0.000000 0.000000 0.000000
									}
								}
							}
						}
					}
					JOINT RightShoulder
					{
						OFFSET -2.625389 11.175210 0.000000
						CHANNELS 3 Zrotation Yrotation Xrotation
						JOINT RightArm
						{
							OFFSET -0.000000 10.434715 -0.000000
							CHANNELS 3 Zrotation Yrotation Xrotation
							JOINT RightForeArm
							{
								OFFSET -0.000000 29.628420 0.000000
								CHANNELS 3 Zrotation Yrotation Xrotation
								JOINT RightHand
								{
									OFFSET -0.000000 22.857611 0.000000
									CHANNELS 3 Zrotation Yrotation Xrotation
									JOINT RightHandThumb1
									{
										OFFSET -2.867323 3.959563 2.944291
										CHANNELS 3 Zrotation Yrotation Xrotation
										JOINT RightHandThumb2
										{
											OFFSET 0.000000 3.350399 0.000000
											CHANNELS 3 Zrotation Yrotation Xrotation
											JOINT RightHandThumb3
											{
												OFFSET 0.000000 3.756509 -0.000000
												CHANNELS 3 Zrotation Yrotation Xrotation
												JOINT RightHandThumb4
												{
													OFFSET 0.000000 3.147345 0.000000
													CHANNELS 3 Zrotation Yrotation Xrotation
													End Site
													{
														OFFSET 0.000000 0.000000 0.000000
													}
												}
											}
										}
									}
									JOINT RightHandIndex1
									{
										OFFSET -0.086752 10.030893 2.345280
										CHANNELS 3 Zrotation Yrotation Xrotation
										JOINT RightHandIndex2
										{
											OFFSET -0.000000 4.061090 0.000000
											CHANNELS 3 Zrotation Yrotation Xrotation
											JOINT RightHandIndex3
											{
												OFFSET -0.000000 3.248873 0.000000
												CHANNELS 3 Zrotation Yrotation Xrotation
												JOINT RightHandIndex4
												{
													OFFSET 0.000000 2.639709 -0.000000
													CHANNELS 3 Zrotation Yrotation Xrotation
													End Site
													{
														OFFSET 0.000000 0.000000 0.000000
													}
												}
											}
										}
									}
									JOINT RightHandMiddle1
									{
										OFFSET 0.104102 9.502952 0.006768
										CHANNELS 3 Zrotation Yrotation Xrotation
										JOINT RightHandMiddle2
										{
											OFFSET 0.000000 4.568727 0.000000
											CHANNELS 3 Zrotation Yrotation Xrotation
											JOINT RightHandMiddle3
											{
												OFFSET 0.000000 3.654981 -0.000000
												CHANNELS 3 Zrotation Yrotation Xrotation
												JOINT RightHandMiddle4
												{
													OFFSET -0.000000 2.741236 -0.000000
													CHANNELS 3 Zrotation Yrotation Xrotation
													End Site
													{
														OFFSET 0.000000 0.000000 0.000000
													}
												}
											}
										}
									}
									JOINT RightHandRing1
									{
										OFFSET 0.086752 8.921708 -2.267442
										CHANNELS 3 Zrotation Yrotation Xrotation
										JOINT RightHandRing2
										{
											OFFSET -0.000000 4.061090 0.000000
											CHANNELS 3 Zrotation Yrotation Xrotation
											JOINT RightHandRing3
											{
												OFFSET 0.000000 3.654981 -0.000000
												CHANNELS 3 Zrotation Yrotation Xrotation
												JOINT RightHandRing4
												{
													OFFSET 0.000000 2.741236 -0.000000
													CHANNELS 3 Zrotation Yrotation Xrotation
													End Site
													{
														OFFSET 0.000000 0.000000 0.000000
													}
												}
											}
										}
									}
									JOINT RightHandPinky1
									{
										OFFSET -0.173504 7.976997 -4.467199
										CHANNELS 3 Zrotation Yrotation Xrotation
										JOINT RightHandPinky2
										{
											OFFSET 0.000000 3.350399 -0.000000
											CHANNELS 3 Zrotation Yrotation Xrotation
											JOINT RightHandPinky3
											{
												OFFSET -0.000000 2.842763 0.000000
												CHANNELS 3 Zrotation Yrotation Xrotation
												JOINT RightHandPinky4
												{
													OFFSET -0.000000 2.639709 0.000000
													CHANNELS 3 Zrotation Yrotation Xrotation
													End Site
													{
														OFFSET 0.000000 0.000000 0.000000
													}
												}
											}
										}
									}
									JOINT RightForeArmEnd
									{
										OFFSET 0.000000 0.000000 0.000000
										CHANNELS 3 Zrotation Yrotation Xrotation
										End Site
										{
											OFFSET 0.000000 0.000000 0.000000
										}
									}
								}
								JOINT RightArmEnd
								{
									OFFSET 0.000000 0.000000 0.000000
									CHANNELS 3 Zrotation Yrotation Xrotation
									End Site
									{
										OFFSET 0.000000 0.000000 0.000000
									}
								}
							}
						}
					}
					JOINT LeftShoulder
					{
						OFFSET 2.625389 11.175210 0.000000
						CHANNELS 3 Zrotation Yrotation Xrotation
						JOINT LeftArm
						{
							OFFSET 0.000000 10.813635 -0.000000
							CHANNELS 3 Zrotation Yrotation Xrotation
							JOINT LeftForeArm
							{
								OFFSET 0.000000 28.724781 0.000000
								CHANNELS 3 Zrotation Yrotation Xrotation
								JOINT LeftHand
								{
									OFFSET 0.644384 25.716167 -0.328871
									CHANNELS 3 Zrotation Yrotation Xrotation
									JOINT LeftHandThumb1
									{
										OFFSET 2.867323 3.959563 2.944291
										CHANNELS 3 Zrotation Yrotation Xrotation
										JOINT LeftHandThumb2
										{
											OFFSET 0.000000 3.350399 0.000000
											CHANNELS 3 Zrotation Yrotation Xrotation
											JOINT LeftHandThumb3
											{
												OFFSET -0.000000 3.756509 0.000000
												CHANNELS 3 Zrotation Yrotation Xrotation
												JOINT LeftHandThumb4
												{
													OFFSET -0.000000 3.100000 0.000000
													CHANNELS 3 Zrotation Yrotation Xrotation
													End Site
													{
														OFFSET 0.000000 0.000000 0.000000
													}
												}
											}
										}
									}
									JOINT LeftHandIndex1
									{
										OFFSET 0.086752 10.030893 2.345280
										CHANNELS 3 Zrotation Yrotation Xrotation
										JOINT LeftHandIndex2
										{
											OFFSET -0.000000 4.061090 -0.000000
											CHANNELS 3 Zrotation Yrotation Xrotation
											JOINT LeftHandIndex3
											{
												OFFSET 0.000000 3.248873 -0.000000
												CHANNELS 3 Zrotation Yrotation Xrotation
												JOINT LeftHandIndex4
												{
													OFFSET 0.000000 2.639709 -0.000000
													CHANNELS 3 Zrotation Yrotation Xrotation
													End Site
													{
														OFFSET 0.000000 0.000000 0.000000
													}
												}
											}
										}
									}
									JOINT LeftHandMiddle1
									{
										OFFSET -0.104102 9.502952 0.006768
										CHANNELS 3 Zrotation Yrotation Xrotation
										JOINT LeftHandMiddle2
										{
											OFFSET -0.000000 4.568727 -0.000000
											CHANNELS 3 Zrotation Yrotation Xrotation
											JOINT LeftHandMiddle3
											{
												OFFSET 0.000000 3.654981 0.000000
												CHANNELS 3 Zrotation Yrotation Xrotation
												JOINT LeftHandMiddle4
												{
													OFFSET 0.000000 2.741236 -0.000000
													CHANNELS 3 Zrotation Yrotation Xrotation
													End Site
													{
														OFFSET 0.000000 0.000000 0.000000
													}
												}
											}
										}
									}
									JOINT LeftHandRing1
									{
										OFFSET -0.086752 8.921708 -2.267442
										CHANNELS 3 Zrotation Yrotation Xrotation
										JOINT LeftHandRing2
										{
											OFFSET 0.000000 4.061090 0.000000
											CHANNELS 3 Zrotation Yrotation Xrotation
											JOINT LeftHandRing3
											{
												OFFSET 0.000000 3.654981 0.000000
												CHANNELS 3 Zrotation Yrotation Xrotation
												JOINT LeftHandRing4
												{
													OFFSET 0.000000 2.741236 0.000000
													CHANNELS 3 Zrotation Yrotation Xrotation
													End Site
													{
														OFFSET 0.000000 0.000000 0.000000
													}
												}
											}
										}
									}
									JOINT LeftHandPinky1
									{
										OFFSET 0.173504 7.976997 -4.467199
										CHANNELS 3 Zrotation Yrotation Xrotation
										JOINT LeftHandPinky2
										{
											OFFSET -0.000000 3.350399 -0.000000
											CHANNELS 3 Zrotation Yrotation Xrotation
											JOINT LeftHandPinky3
											{
												OFFSET 0.000000 2.842763 0.000000
												CHANNELS 3 Zrotation Yrotation Xrotation
												JOINT LeftHandPinky4
												{
													OFFSET -0.000000 2.639709 -0.000000
													CHANNELS 3 Zrotation Yrotation Xrotation
													End Site
													{
														OFFSET 0.000000 0.000000 0.000000
													}
												}
											}
										}
									}
									JOINT LeftForeArmEnd
									{
										OFFSET 0.000000 0.000000 0.000000
										CHANNELS 3 Zrotation Yrotation Xrotation
										End Site
										{
											OFFSET 0.000000 0.000000 0.000000
										}
									}
								}
								JOINT LeftArmEnd
								{
									OFFSET 0.000000 0.000000 0.000000
									CHANNELS 3 Zrotation Yrotation Xrotation
									End Site
									{
										OFFSET 0.000000 0.000000 0.000000
									}
								}
							}
						}
					}
				}
			}
		}
	}
	JOINT RightUpLeg
	{
		OFFSET -11.289943 0.000000 0.000000
		CHANNELS 3 Zrotation Yrotation Xrotation
		JOINT RightLeg
		{
			OFFSET 0.000000 -38.200325 0.000000
			CHANNELS 3 Zrotation Yrotation Xrotation
			JOINT RightFoot
			{
				OFFSET -0.000000 -39.900856 -0.000000
				CHANNELS 3 Zrotation Yrotation Xrotation
				JOINT RightToeBase
				{
					OFFSET 0.000000 0.000000 15.261641
					CHANNELS 3 Zrotation Yrotation Xrotation
					JOINT RightToeBaseEnd
					{
						OFFSET 0.000000 0.000000 7.370709
						CHANNELS 3 Zrotation Yrotation Xrotation
						End Site
						{
							OFFSET 0.000000 0.000000 0.000000
						}
					}
				}
				JOINT RightLegEnd
				{
					OFFSET 0.000000 0.000000 0.000000
					CHANNELS 3 Zrotation Yrotation Xrotation
					End Site
					{
						OFFSET 0.000000 0.000000 0.000000
					}
				}
			}
			JOINT RightUpLegEnd
			{
				OFFSET 0.000000 0.000000 0.000000
				CHANNELS 3 Zrotation Yrotation Xrotation
				End Site
				{
					OFFSET 0.000000 0.000000 0.000000
				}
			}
		}
	}
	JOINT LeftUpLeg
	{
		OFFSET 11.315661 -0.000000 0.000000
		CHANNELS 3 Zrotation Yrotation Xrotation
		JOINT LeftLeg
		{
			OFFSET -0.000000 -38.200325 -0.000000
			CHANNELS 3 Zrotation Yrotation Xrotation
			JOINT LeftFoot
			{
				OFFSET 0.000000 -39.900856 -0.000000
				CHANNELS 3 Zrotation Yrotation Xrotation
				JOINT LeftToeBase
				{
					OFFSET -0.000000 -0.000000 15.261641
					CHANNELS 3 Zrotation Yrotation Xrotation
					JOINT LeftToeBaseEnd
					{
						OFFSET 0.000000 -0.000000 7.539996
						CHANNELS 3 Zrotation Yrotation Xrotation
						End Site
						{
							OFFSET 0.000000 0.000000 0.000000
						}
					}
				}
				JOINT LeftLegEnd
				{
					OFFSET 0.000000 0.000000 0.000000
					CHANNELS 3 Zrotation Yrotation Xrotation
					End Site
					{
						OFFSET 0.000000 0.000000 0.000000
					}
				}
			}
			JOINT LeftUpLegEnd
			{
				OFFSET 0.000000 0.000000 0.000000
				CHANNELS 3 Zrotation Yrotation Xrotation
				End Site
				{
					OFFSET 0.000000 0.000000 0.000000
				}
			}
		}
	}
}
MOTION
Frames: 4
Frame Time: 0.016667
-0.176069 88.580925 3.855758 -0.192061 -0.154920 -10.762631 0.848450 -0.010867 7.479318 -0.502976 0.131348 3.265114 -0.448632 -0.339864 5.740198 -1.264742 0.073589 5.412856 1.535568 -0.245511 5.253883 0.309931 0.012221 -2.989097 -0.035093 -0.645727 -19.873272 0.000000 0.000000 0.000000 92.708466 -0.223257 9.918326 67.839363 -23.604809 4.843345 0.042553 17.375805 26.589567 3.791016 10.230484 -7.083375 20.060724 30.037443 61.870419 -8.694153 -12.636332 -21.201744 -6.518380 -8.275529 -14.645396 0.000000 0.000000 0.000000 13.572297 -11.291800 0.441332 10.736143 0.301346 1.445596 10.433210 -0.117938 1.432876 0.000000 0.000000 0.000000 13.063868 -5.691880 -0.744086 9.607446 0.423832 0.515732 10.020706 -0.064730 0.470758 0.000000 0.000000 0.000000 14.499895 1.960798 -0.990981 10.800467 -0.853097 -0.842878 10.573588 0.076455 -0.605000 0.000000 0.000000 0.000000 13.865561 10.413112 -2.144663 10.941300 -1.567625 -2.454124 10.618148 0.305668 -1.947301 0.000000 0.000000 0.000000 0.000000 0.000000 0.000000 0.000000 0.000000 0.000000 -90.257660 0.424902 5.049454 -71.116501 13.084911 -7.637423 -0.903395 -13.501728 51.519535 -3.178793 -8.453526 -17.911457 -19.845457 -30.118599 61.980412 8.569756 12.067395 -20.497555 6.285376 8.090196 -14.410295 0.000000 0.000000 0.000000 -15.551517 -6.033583 1.459312 -10.190267 0.385059 -0.905749 -10.247240 -0.077127 -0.872575 0.000000 0.000000 0.000000 -15.995612 -0.779742 -0.505664 -10.279392 0.438311 -0.434964 -10.646411 -0.035120 -0.346165 0.000000 0.000000 0.000000 -20.799122 7.775750 -2.060449 -13.772523 -0.896686 0.756043 -13.601550 0.059202 0.601335 0.000000 0.000000 0.000000 -24.598896 16.642099 -4.715251 -16.104307 -1.533669 2.581316 -15.511498 0.388698 2.244767 0.000000 0.000000 0.000000 0.000000 0.000000 0.000000 0.000000 0.000000 0.000000 -0.420483 -9.383843 15.795561 -0.077089 -0.718622 4.810226 -3.508120 -6.943549 16.240988 -0.802530 0.923225 -18.308533 0.000000 0.000000 0.000000 0.000000 0.000000 0.000000 0.000000 0.000000 0.000000 -1.046701 -6.290532 9.765910 0.054813 0.334950 10.682569 3.620024 -2.168661 15.287465 0.190450 -0.422502 -20.268570 0.000000 0.000000 0.000000 0.000000 0.000000 0.000000 0.000000 0.000000 0.000000 
-0.176595 88.581322 3.908582 -0.194735 -0.229942 -10.801538 0.838070 -0.012153 7.502470 -0.488473 0.123397 3.204917 -0.452278 -0.331755 5.820906 -1.269926 0.066815 5.406686 1.565323 -0.273943 5.268713 0.304506 -0.009329 -2.976297 -0.025691 -0.633554 -19.890759 0.000000 0.000000 0.000000 92.765526 -0.225059 9.930198 67.782700 -23.931028 5.006592 0.029937 17.157261 26.289293 3.750011 10.177968 -6.984114 20.075775 30.032671 61.855938 -8.709107 -12.667435 -21.240463 -6.531152 -8.295567 -14.676059 0.000000 0.000000 0.000000 13.670483 -11.298860 0.427470 10.745599 0.300803 1.449347 10.444797 -0.118411 1.435466 0.000000 0.000000 0.000000 13.141273 -5.702031 -0.742913 9.614149 0.422886 0.517460 10.016768 -0.065192 0.471824 0.000000 0.000000 0.000000 14.560039 1.948726 -0.963993 10.797106 -0.852402 -0.843824 10.569435 0.076663 -0.605964 0.000000 0.000000 0.000000 13.916807 10.398232 -2.089749 10.935286 -1.565595 -2.458651 10.616708 0.306809 -1.952532 0.000000 0.000000 0.000000 0.000000 0.000000 0.000000 0.000000 0.000000 0.000000 -90.283478 0.434018 5.085873 -71.151924 13.408463 -7.548374 -0.888503 -13.296035 50.972523 -3.265606 -8.512156 -18.085236 -19.820454 -30.125559 62.005600 8.544040 12.021009 -20.422665 6.263435 8.058077 -14.358517 0.000000 0.000000 0.000000 -15.292275 -6.083396 1.500252 -10.063375 0.388585 -0.896453 -10.119189 -0.073619 -0.863869 0.000000 0.000000 0.000000 -15.716946 -0.829057 -0.481000 -10.136478 0.439808 -0.430860 -10.507227 -0.033759 -0.343044 0.000000 0.000000 0.000000 -20.456648 7.726208 -2.044690 -13.584747 -0.898747 0.748995 -13.414941 0.057694 0.596285 0.000000 0.000000 0.000000 -24.236263 16.603943 -4.703099 -15.896902 -1.541206 2.561468 -15.308273 0.383225 2.229288 0.000000 0.000000 0.000000 0.000000 0.000000 0.000000 0.000000 0.000000 0.000000 -0.427472 -9.344751 15.886339 -0.077490 -0.723384 4.767179 -3.505175 -6.897106 16.206551 -0.806927 0.930611 -18.290182 0.000000 0.000000 0.000000 0.000000 0.000000 0.000000 0.000000 0.000000 0.000000 -1.042730 -6.282636 9.861840 0.055113 0.336424 10.679040 3.615157 -2.153689 15.237370 0.188220 -0.424328 -20.248192 0.000000 0.000000 0.000000 0.000000 0.000000 0.000000 0.000000 0.000000 0.000000 
-0.177219 88.581520 3.959379 -0.196808 -0.306872 -10.839584 0.826395 -0.013671 7.526893 -0.474752 0.115397 3.143063 -0.456509 -0.324831 5.901964 -1.274899 0.059612 5.397934 1.596121 -0.302383 5.283085 0.298560 -0.030353 -2.963885 -0.016201 -0.620939 -19.907242 0.000000 0.000000 0.000000 92.819275 -0.226920 9.941989 67.724426 -24.252504 5.166133 0.017604 16.934288 26.010408 3.691786 10.143795 -6.880295 20.089304 30.028351 61.843212 -8.722836 -12.695002 -21.274540 -6.542738 -8.313457 -14.703453 0.000000 0.000000 0.000000 13.755969 -11.303352 0.420549 10.745690 0.300987 1.450664 10.446639 -0.118139 1.435808 0.000000 0.000000 0.000000 13.205999 -5.710039 -0.735585 9.611611 0.422259 0.518281 10.004022 -0.065370 0.472132 0.000000 0.000000 0.000000 14.610415 1.938190 -0.933994 10.785513 -0.852199 -0.843438 10.557323 0.076545 -0.605981 0.000000 0.000000 0.000000 13.961358 10.384356 -2.035271 10.923701 -1.565123 -2.459349 10.609631 0.306738 -1.954747 0.000000 0.000000 0.000000 0.000000 0.000000 0.000000 0.000000 0.000000 0.000000 -90.305679 0.441832 5.123723 -71.183945 13.737517 -7.460120 -0.873470 -13.089131 50.442055 -3.329609 -8.567966 -18.254696 -19.792328 -30.133600 62.034092 8.514671 11.968575 -20.338213 6.238832 8.022068 -14.300034 0.000000 0.000000 0.000000 -15.005809 -6.138300 1.549506 -9.924818 0.392209 -0.887856 -9.980021 -0.070024 -0.856013 0.000000 0.000000 0.000000 -15.414425 -0.882674 -0.449942 -9.983138 0.441310 -0.427028 -10.357980 -0.032403 -0.340199 0.000000 0.000000 0.000000 -20.096796 7.674078 -2.025284 -13.388679 -0.900774 0.742536 -13.219728 0.056241 0.591657 0.000000 0.000000 0.000000 -23.861643 16.566269 -4.690389 -15.684842 -1.548789 2.543396 -15.099464 0.377781 2.215361 0.000000 0.000000 0.000000 0.000000 0.000000 0.000000 0.000000 0.000000 0.000000 -0.434497 -9.305391 15.976462 -0.077784 -0.727862 4.725729 -3.500244 -6.849223 16.171085 -0.811039 0.938243 -18.272602 0.000000 0.000000 0.000000 0.000000 0.000000 0.000000 0.000000 0.000000 0.000000 -1.038117 -6.270084 9.955359 0.055373 0.337820 10.678662 3.610008 -2.136320 15.189148 0.186066 -0.426032 -20.229015 0.000000 0.000000 0.000000 0.000000 0.000000 0.000000 0.000000 0.000000 0.000000 
-0.177931 88.581596 4.007927 -0.198267 -0.385226 -10.876433 0.813789 -0.015540 7.552215 -0.461997 0.107403 3.080270 -0.461515 -0.319306 5.982877 -1.279703 0.051951 5.386433 1.627556 -0.330529 5.295459 0.292103 -0.050823 -2.952418 -0.006740 -0.607872 -19.922449 0.000000 0.000000 0.000000 92.869530 -0.229102 9.953958 67.660973 -24.572359 5.322413 0.005530 16.707104 25.752539 3.624303 10.125303 -6.772666 20.101227 30.024519 61.832375 -8.735086 -12.718793 -21.303646 -6.552996 -8.329076 -14.727263 0.000000 0.000000 0.000000 13.828271 -11.305426 0.419750 10.737270 0.301732 1.450018 10.439625 -0.117284 1.434354 0.000000 0.000000 0.000000 13.257709 -5.715852 -0.723218 9.600577 0.421887 0.518383 9.983219 -0.065320 0.471847 0.000000 0.000000 0.000000 14.650409 1.929336 -0.902192 10.766435 -0.852359 -0.842020 10.538031 0.076193 -0.605250 0.000000 0.000000 0.000000 13.998743 10.371649 -1.982818 10.907395 -1.565835 -2.457029 10.597676 0.305725 -1.954620 0.000000 0.000000 0.000000 0.000000 0.000000 0.000000 0.000000 0.000000 0.000000 -90.324036 0.448198 5.162996 -71.209824 14.068650 -7.372070 -0.858284 -12.880836 49.929649 -3.373198 -8.618570 -18.419664 -19.761553 -30.142597 62.065323 8.482049 11.911026 -20.245703 6.211906 7.982816 -14.235834 0.000000 0.000000 0.000000 -14.695834 -6.197568 1.605978 -9.776383 0.395845 -0.880116 -9.831397 -0.066422 -0.849111 0.000000 0.000000 0.000000 -15.091340 -0.939987 -0.413267 -9.820863 0.442776 -0.423512 -10.200275 -0.031088 -0.337656 0.000000 0.000000 0.000000 -19.721693 7.619637 -2.002605 -13.185455 -0.902707 0.736686 -13.016973 0.054877 0.587470 0.000000 0.000000 0.000000 -23.476143 16.529074 -4.677072 -15.468718 -1.556210 2.527072 -14.885715 0.372489 2.202972 0.000000 0.000000 0.000000 0.000000 0.000000 0.000000 0.000000 0.000000 0.000000 -0.441659 -9.265865 16.065510 -0.077988 -0.732077 4.685987 -3.493208 -6.800235 16.134451 -0.814870 0.946117 -18.255486 0.000000 0.000000 0.000000 0.000000 0.000000 0.000000 0.000000 0.000000 0.000000 -1.032859 -6.253450 10.045715 0.055600 0.339096 10.681368 3.604550 -2.116770 15.143306 0.184021 -0.427640 -20.211084 0.000000 0.000000 0.000000 0.000000 0.000000 0.000000 0.000000 0.000000 0.000000 
